<?xml version="1.0" encoding="UTF-8" standalone="no"?><svg xmlns="http://www.w3.org/2000/svg" xmlns:xlink="http://www.w3.org/1999/xlink" contentScriptType="application/ecmascript" contentStyleType="text/css" height="301px" preserveAspectRatio="none" style="width:236px;height:301px;" version="1.1" viewBox="0 0 236 301" width="236px" zoomAndPan="magnify"><defs><filter height="300%" id="fbhq6eqig7gbx" width="300%" x="-1" y="-1"><feGaussianBlur result="blurOut" stdDeviation="2.0"/><feColorMatrix in="blurOut" result="blurOut2" type="matrix" values="0 0 0 0 0 0 0 0 0 0 0 0 0 0 0 0 0 0 .4 0"/><feOffset dx="4.0" dy="4.0" in="blurOut2" result="blurOut3"/><feBlend in="SourceGraphic" in2="blurOut3" mode="normal"/></filter></defs><g><!--class CoffeMachine--><rect fill="#FEFECE" filter="url(#fbhq6eqig7gbx)" height="48" id="CoffeMachine" style="stroke: #A80036; stroke-width: 1.5;" width="116" x="6" y="8"/><ellipse cx="21" cy="24" fill="#B4A7E5" rx="11" ry="11" style="stroke: #A80036; stroke-width: 1.0;"/><path d="M16.9219,19.7656 L16.9219,17.6094 L24.3125,17.6094 L24.3125,19.7656 L21.8438,19.7656 L21.8438,27.8438 L24.3125,27.8438 L24.3125,30 L16.9219,30 L16.9219,27.8438 L19.3906,27.8438 L19.3906,19.7656 L16.9219,19.7656 Z "/><text fill="#000000" font-family="sans-serif" font-size="12" font-style="italic" lengthAdjust="spacingAndGlyphs" textLength="84" x="35" y="28.1543">CoffeMachine</text><line style="stroke: #A80036; stroke-width: 1.5;" x1="7" x2="121" y1="40" y2="40"/><line style="stroke: #A80036; stroke-width: 1.5;" x1="7" x2="121" y1="48" y2="48"/><!--class Coffee--><rect fill="#FEFECE" filter="url(#fbhq6eqig7gbx)" height="48" id="Coffee" style="stroke: #A80036; stroke-width: 1.5;" width="72" x="8" y="117"/><ellipse cx="23" cy="133" fill="#ADD1B2" rx="11" ry="11" style="stroke: #A80036; stroke-width: 1.0;"/><path d="M25.9688,138.6406 Q25.3906,138.9375 24.75,139.0781 Q24.1094,139.2344 23.4063,139.2344 Q20.9063,139.2344 19.5781,137.5938 Q18.2656,135.9375 18.2656,132.8125 Q18.2656,129.6875 19.5781,128.0313 Q20.9063,126.375 23.4063,126.375 Q24.1094,126.375 24.75,126.5313 Q25.4063,126.6875 25.9688,126.9844 L25.9688,129.7031 Q25.3438,129.125 24.75,128.8594 Q24.1563,128.5781 23.5313,128.5781 Q22.1875,128.5781 21.5,129.6563 Q20.8125,130.7188 20.8125,132.8125 Q20.8125,134.9063 21.5,135.9844 Q22.1875,137.0469 23.5313,137.0469 Q24.1563,137.0469 24.75,136.7813 Q25.3438,136.5 25.9688,135.9219 L25.9688,138.6406 Z "/><text fill="#000000" font-family="sans-serif" font-size="12" lengthAdjust="spacingAndGlyphs" textLength="40" x="37" y="137.1543">Coffee</text><line style="stroke: #A80036; stroke-width: 1.5;" x1="9" x2="79" y1="149" y2="149"/><line style="stroke: #A80036; stroke-width: 1.5;" x1="9" x2="79" y1="157" y2="157"/><!--class Driver--><rect fill="#FEFECE" filter="url(#fbhq6eqig7gbx)" height="48" id="Driver" style="stroke: #A80036; stroke-width: 1.5;" width="68" x="157" y="8"/><ellipse cx="172" cy="24" fill="#ADD1B2" rx="11" ry="11" style="stroke: #A80036; stroke-width: 1.0;"/><path d="M174.9688,29.6406 Q174.3906,29.9375 173.75,30.0781 Q173.1094,30.2344 172.4063,30.2344 Q169.9063,30.2344 168.5781,28.5938 Q167.2656,26.9375 167.2656,23.8125 Q167.2656,20.6875 168.5781,19.0313 Q169.9063,17.375 172.4063,17.375 Q173.1094,17.375 173.75,17.5313 Q174.4063,17.6875 174.9688,17.9844 L174.9688,20.7031 Q174.3438,20.125 173.75,19.8594 Q173.1563,19.5781 172.5313,19.5781 Q171.1875,19.5781 170.5,20.6563 Q169.8125,21.7188 169.8125,23.8125 Q169.8125,25.9063 170.5,26.9844 Q171.1875,28.0469 172.5313,28.0469 Q173.1563,28.0469 173.75,27.7813 Q174.3438,27.5 174.9688,26.9219 L174.9688,29.6406 Z "/><text fill="#000000" font-family="sans-serif" font-size="12" lengthAdjust="spacingAndGlyphs" textLength="36" x="186" y="28.1543">Driver</text><line style="stroke: #A80036; stroke-width: 1.5;" x1="158" x2="224" y1="40" y2="40"/><line style="stroke: #A80036; stroke-width: 1.5;" x1="158" x2="224" y1="48" y2="48"/><!--class Tea--><rect fill="#FEFECE" filter="url(#fbhq6eqig7gbx)" height="48" id="Tea" style="stroke: #A80036; stroke-width: 1.5;" width="55" x="140.5" y="242"/><ellipse cx="155.5" cy="258" fill="#ADD1B2" rx="11" ry="11" style="stroke: #A80036; stroke-width: 1.0;"/><path d="M158.4688,263.6406 Q157.8906,263.9375 157.25,264.0781 Q156.6094,264.2344 155.9063,264.2344 Q153.4063,264.2344 152.0781,262.5938 Q150.7656,260.9375 150.7656,257.8125 Q150.7656,254.6875 152.0781,253.0313 Q153.4063,251.375 155.9063,251.375 Q156.6094,251.375 157.25,251.5313 Q157.9063,251.6875 158.4688,251.9844 L158.4688,254.7031 Q157.8438,254.125 157.25,253.8594 Q156.6563,253.5781 156.0313,253.5781 Q154.6875,253.5781 154,254.6563 Q153.3125,255.7188 153.3125,257.8125 Q153.3125,259.9063 154,260.9844 Q154.6875,262.0469 156.0313,262.0469 Q156.6563,262.0469 157.25,261.7813 Q157.8438,261.5 158.4688,260.9219 L158.4688,263.6406 Z "/><text fill="#000000" font-family="sans-serif" font-size="12" lengthAdjust="spacingAndGlyphs" textLength="23" x="169.5" y="262.1543">Tea</text><line style="stroke: #A80036; stroke-width: 1.5;" x1="141.5" x2="194.5" y1="274" y2="274"/><line style="stroke: #A80036; stroke-width: 1.5;" x1="141.5" x2="194.5" y1="282" y2="282"/><!--class TeaAdapter--><rect fill="#FEFECE" filter="url(#fbhq6eqig7gbx)" height="48" id="TeaAdapter" style="stroke: #A80036; stroke-width: 1.5;" width="105" x="115.5" y="117"/><ellipse cx="130.5" cy="133" fill="#ADD1B2" rx="11" ry="11" style="stroke: #A80036; stroke-width: 1.0;"/><path d="M133.4688,138.6406 Q132.8906,138.9375 132.25,139.0781 Q131.6094,139.2344 130.9063,139.2344 Q128.4063,139.2344 127.0781,137.5938 Q125.7656,135.9375 125.7656,132.8125 Q125.7656,129.6875 127.0781,128.0313 Q128.4063,126.375 130.9063,126.375 Q131.6094,126.375 132.25,126.5313 Q132.9063,126.6875 133.4688,126.9844 L133.4688,129.7031 Q132.8438,129.125 132.25,128.8594 Q131.6563,128.5781 131.0313,128.5781 Q129.6875,128.5781 129,129.6563 Q128.3125,130.7188 128.3125,132.8125 Q128.3125,134.9063 129,135.9844 Q129.6875,137.0469 131.0313,137.0469 Q131.6563,137.0469 132.25,136.7813 Q132.8438,136.5 133.4688,135.9219 L133.4688,138.6406 Z "/><text fill="#000000" font-family="sans-serif" font-size="12" lengthAdjust="spacingAndGlyphs" textLength="73" x="144.5" y="137.1543">TeaAdapter</text><line style="stroke: #A80036; stroke-width: 1.5;" x1="116.5" x2="219.5" y1="149" y2="149"/><line style="stroke: #A80036; stroke-width: 1.5;" x1="116.5" x2="219.5" y1="157" y2="157"/><!--link CoffeMachine to Coffee--><path d="M55.95,76.09 C53.34,90.01 50.56,104.92 48.33,116.83 " fill="none" id="CoffeMachine-Coffee" style="stroke: #A80036; stroke-width: 1.0; stroke-dasharray: 7.0,7.0;"/><polygon fill="none" points="49.1,74.59,59.66,56.22,62.87,77.16,49.1,74.59" style="stroke: #A80036; stroke-width: 1.0;"/><!--link CoffeMachine to TeaAdapter--><path d="M100.68,70.74 C115.62,86.1 132.4,103.38 145.48,116.83 " fill="none" id="CoffeMachine-TeaAdapter" style="stroke: #A80036; stroke-width: 1.0; stroke-dasharray: 7.0,7.0;"/><polygon fill="none" points="95.49,75.44,86.57,56.22,105.53,65.68,95.49,75.44" style="stroke: #A80036; stroke-width: 1.0;"/><!--link TeaAdapter to Tea--><path d="M168,178.21 C168,198.83 168,224.04 168,241.97 " fill="none" id="TeaAdapter-Tea" style="stroke: #A80036; stroke-width: 1.0;"/><polygon fill="#FFFFFF" points="168,165.14,164,171.14,168,177.14,172,171.14,168,165.14" style="stroke: #A80036; stroke-width: 1.0;"/><text fill="#000000" font-family="sans-serif" font-size="13" lengthAdjust="spacingAndGlyphs" textLength="21" x="169" y="208.0669">tea</text><!--
@startuml

    interface CoffeMachine {
    }
    class Coffee {
    }
    class Driver {
    }
    class Tea {
    }
    class TeaAdapter {
    }

  Coffee .up.|> CoffeMachine
  TeaAdapter .up.|> CoffeMachine
  TeaAdapter o- - Tea : tea

@enduml

PlantUML version 1.2018.13(Mon Nov 26 17:11:51 GMT 2018)
(GPL source distribution)
Java Runtime: OpenJDK Runtime Environment
JVM: OpenJDK 64-Bit Server VM
Java Version: 11.0.8+10-post-Ubuntu-0ubuntu120.04
Operating System: Linux
OS Version: 5.4.0-51-generic
Default Encoding: UTF-8
Language: en
Country: IE
--></g></svg>